<?xml version="1.0" standalone="no"?>
<!DOCTYPE svg PUBLIC "-//W3C//DTD SVG 20010904//EN"
 "http://www.w3.org/TR/2001/REC-SVG-20010904/DTD/svg10.dtd">
<svg version="1.0" xmlns="http://www.w3.org/2000/svg"
 width="512.000000pt" height="428.000000pt" viewBox="0 0 512.000000 428.000000"
 preserveAspectRatio="xMidYMid meet">
<rect width="100%" height="100%" fill="#047C90" />
<g transform="translate(0.000000,428.000000) scale(0.100000,-0.100000)"
fill="#FF8000" stroke="none">
<path d="M1629 4267 c-90 -26 -207 -116 -241 -188 l-14 -29 -145 -4 c-265 -7
-496 -70 -960 -264 -191 -79 -224 -97 -252 -134 -18 -25 -19 -31 -8 -69 30
-98 196 -204 428 -270 l117 -34 -75 -8 c-111 -12 -179 -53 -154 -93 12 -18 41
-29 372 -139 281 -94 332 -116 385 -172 20 -21 94 -132 164 -248 140 -231 183
-292 333 -470 l102 -120 -7 -120 c-11 -216 -30 -317 -68 -362 -21 -25 -30 -27
-127 -33 -144 -9 -189 -35 -189 -109 0 -29 1 -30 67 -37 96 -10 309 2 370 20
59 19 91 51 154 157 24 40 45 67 47 61 1 -5 -1 -69 -7 -140 -10 -138 -28 -199
-70 -236 -18 -16 -43 -21 -129 -26 -59 -4 -117 -12 -129 -18 -33 -18 -53 -52
-53 -90 l0 -34 223 5 c131 2 237 9 259 16 78 25 137 119 274 438 50 117 93
216 96 218 7 7 343 -82 379 -100 19 -10 54 -34 79 -54 l45 -36 -110 -6 c-156
-8 -215 -42 -215 -124 l0 -27 278 3 c257 2 282 0 344 -19 37 -12 90 -24 118
-28 50 -7 50 -7 33 -26 -56 -63 -172 -102 -361 -122 -149 -17 -213 -34 -249
-68 -26 -24 -48 -82 -37 -99 12 -21 517 11 759 47 204 30 255 57 290 152 9 26
32 83 50 127 l33 80 94 11 c189 25 392 111 504 215 l30 29 65 -45 c216 -153
315 -301 350 -526 22 -141 -12 -307 -88 -439 -51 -88 -200 -236 -288 -288
-250 -146 -530 -133 -976 43 -271 108 -352 128 -524 129 -120 1 -151 -2 -215
-22 -122 -38 -246 -108 -321 -182 -89 -88 -121 -156 -127 -270 l-4 -85 49 84
c69 120 157 212 246 256 164 80 312 65 681 -71 393 -146 537 -182 756 -190
223 -9 397 26 595 121 172 82 289 196 371 360 213 430 46 1015 -374 1309 -77
54 -82 60 -82 94 0 44 -29 169 -71 307 -74 242 -234 600 -355 795 -251 406
-609 663 -1004 721 -167 24 -407 -3 -582 -66 -298 -108 -399 -119 -506 -53
l-33 20 75 78 c105 110 135 176 105 232 -25 47 -152 75 -271 60 l-68 -8 0 55
c0 100 -47 155 -141 166 -24 2 -65 -1 -90 -8z m-724 -601 c39 -16 58 -46 53
-83 -10 -83 -194 -97 -230 -18 -35 77 78 142 177 101z"/>
</g>
</svg>
