<?xml version="1.0" standalone="no"?>
<!DOCTYPE svg PUBLIC "-//W3C//DTD SVG 20010904//EN"
 "http://www.w3.org/TR/2001/REC-SVG-20010904/DTD/svg10.dtd">
<svg version="1.0" xmlns="http://www.w3.org/2000/svg"
 width="512.000000pt" height="350.000000pt" viewBox="0 0 512.000000 350.000000"
 preserveAspectRatio="xMidYMid meet">
<rect width="100%" height="100%" fill="#047C90" />
<g transform="translate(0.000000,350.000000) scale(0.100000,-0.100000)"
fill="#FF3333" stroke="none">
<path d="M4045 3475 c-64 -12 -285 -70 -835 -220 -279 -75 -365 -83 -650 -61
-457 37 -645 38 -875 6 -205 -29 -452 -109 -660 -212 -255 -127 -309 -183
-464 -487 -160 -312 -227 -417 -398 -624 -125 -151 -157 -237 -157 -427 0
-221 42 -357 222 -715 72 -143 122 -288 122 -354 0 -52 -26 -144 -61 -222 -46
-100 -31 -162 34 -145 36 9 138 134 181 221 73 151 73 243 -4 555 -60 242 -74
386 -47 481 21 71 80 161 197 300 160 190 145 176 167 158 54 -49 165 -79 289
-79 57 0 66 -4 145 -56 191 -126 248 -145 477 -151 154 -5 172 -4 172 11 0 20
44 21 80 2 21 -12 26 -12 37 3 8 10 12 11 13 4 0 -19 75 -16 91 3 9 11 23 14
47 10 29 -4 32 -3 22 9 -10 12 -9 15 6 15 18 1 18 1 -1 16 -48 39 -151 77
-267 100 -140 27 -258 61 -258 73 0 20 352 175 523 230 122 39 506 118 632
130 55 5 141 19 191 32 l90 22 39 -26 c76 -50 172 -71 434 -97 97 -9 116 -9
130 4 11 10 21 12 31 6 22 -14 33 -12 26 5 -4 11 2 15 25 15 23 0 32 5 36 21
5 18 11 20 46 15 35 -6 38 -5 28 8 -7 8 -21 18 -32 21 -28 9 -13 25 24 26 l32
0 -30 13 c-96 42 -157 55 -260 56 -81 0 -163 16 -150 28 4 4 178 7 388 7 210
0 399 4 419 9 24 5 40 15 44 28 5 17 12 20 45 15 28 -4 39 -1 39 8 0 25 29 39
55 27 14 -7 25 -8 25 -3 0 16 -49 60 -72 65 -136 27 -149 28 -245 17 -142 -16
-263 5 -263 46 0 8 30 53 67 99 49 60 79 88 108 100 59 24 147 20 235 -9 165
-56 386 -83 525 -65 44 6 92 10 108 10 25 -1 27 2 27 40 0 36 6 47 49 90 l50
50 -32 51 c-82 135 -263 348 -395 463 -111 98 -200 159 -292 203 -66 31 -84
36 -165 38 -49 1 -121 -4 -160 -12z m387 -114 c48 -31 67 -63 49 -84 -5 -7
-47 -28 -92 -47 -92 -39 -106 -57 -91 -112 6 -21 6 -41 1 -49 -5 -8 -9 -29 -9
-47 0 -44 -14 -68 -50 -87 -41 -21 -64 -19 -99 10 -36 31 -62 112 -62 191 0
67 37 140 100 195 50 44 84 57 157 58 39 1 60 -5 96 -28z m332 -427 c26 -25
20 -72 -10 -86 -52 -24 -110 44 -73 88 15 19 64 18 83 -2z"/>
<path d="M4295 3360 c-104 -22 -189 -126 -189 -230 1 -133 64 -212 131 -165
24 17 34 68 33 163 -1 66 15 102 47 102 11 0 130 55 142 66 4 3 -12 20 -42 43
-23 18 -85 29 -122 21z"/>
<path d="M4704 2905 c-4 -10 -1 -21 7 -26 20 -12 34 -5 34 17 0 24 -33 31 -41
9z"/>
<path d="M5057 2671 c-39 -35 -53 -72 -37 -101 15 -27 46 -25 77 6 21 22 25
32 20 66 -8 59 -19 64 -60 29z"/>
</g>
</svg>
